<svg id="Capa_1" data-name="Capa 1" xmlns="http://www.w3.org/2000/svg" viewBox="0 0 708.66 708.66"><defs><style>.cls-1{fill:#575656;}.cls-2{font-size:96.04px;fill:#1d1d1b;}.cls-2,.cls-3{font-family:FONTSPRINGDEMO-NatomProBlackRegular, FONTSPRING DEMO - Natom Pro Black;font-weight:800;font-style:oblique;}.cls-3{font-size:37.21px;fill:#ee804a;}.cls-4{letter-spacing:-0.01em;}.cls-5{letter-spacing:-0.01em;}.cls-6{letter-spacing:0em;}.cls-7{letter-spacing:-0.01em;}.cls-8{letter-spacing:-0.03em;}.cls-9{letter-spacing:-0.01em;}.cls-10{letter-spacing:-0.01em;}.cls-11{letter-spacing:-0.02em;}</style></defs><path class="cls-1" d="M94.22,224.78c-.44.86-6.4,9.29-8.65,36.82,0,0-1.92,14.72-13.44,35.53,0,0-10.57,15.69-14.73,53.79,0,0-3.84,6.08,1.92,62.1,0,0,8,28.17-15.68,54.42,0,0-2.56,3.85,1.6,4.17,0,0,15,2.24,30.09-13.45,0,0,33.29-27.21,34.57-121.33,0,0,13.45,35.21,2.89,77.15,0,0-1,8,6.08,3.2,0,0,43.54-28.17,35.21-99.88,0,0-4.48-23.05-15.68-35.85,0,0-9.61-9.61-16.33-28.82,0,0-5.76-14.72,10.88-30.73,0,0,27.86-16,35.22,13.77a66.33,66.33,0,0,1,39.06-2.88s-26.9,6.08-38.42,20.49a25.69,25.69,0,0,0-4.48,26.89c6.4,15.68,18.24,40.33,20.81,66.9s-7.37,68.83-27.86,87.08c0,0-19.52,25-61.78,34.25,0,0-2.88,2.23.32,3.32l77.47-.35s1.2-13.93-26.81-14.33c0,0,40.18-14.41,47.62-81.63,0,0,12.48-25.93-19.45-98.2,0,0-10.08-22.81,41.54-40.82,0,0,7-1.68-1-10.33a25.83,25.83,0,0,0-17.53-5s-12.24-2.4-20.17-2.76c0,0-6.24-3.48-8-6.84,0,0-10.57-10.81-25.09-11.89l-14.05-.84S104.9,203.93,94.22,224.78Z"/><text class="cls-2" transform="translate(202.25 329.4)">PENGUIN</text><text/><text class="cls-3" transform="translate(202.06 374.48) scale(0.91 1)"><tspan class="cls-4">D</tspan><tspan x="27.24" y="0">igi</tspan><tspan class="cls-5" x="74.8" y="0">t</tspan><tspan x="91.02" y="0">a</tspan><tspan class="cls-6" x="116.33" y="0">l</tspan><tspan x="130.06" y="0"> </tspan><tspan class="cls-7" x="137.17" y="0">M</tspan><tspan x="171.33" y="0">ar</tspan><tspan class="cls-8" x="213.57" y="0">k</tspan><tspan x="236.72" y="0">eting </tspan><tspan class="cls-9" x="341.7" y="0">A</tspan><tspan x="370.43" y="0">gen</tspan><tspan class="cls-10" x="440.28" y="0">c</tspan><tspan class="cls-11" x="458.1" y="0">y</tspan></text></svg>